<svg width="75" height="102" viewBox="0 0 75 102" fill="none" xmlns="http://www.w3.org/2000/svg">
<path fill-rule="evenodd" clip-rule="evenodd" d="M18.3858 7.64046C7.30849 7.64046 0 20.362 0 36.0548C0 51.7477 7.30849 101.241 18.3858 101.241C24.8479 101.241 25.5819 60.1399 34.2644 60.1027C44.6183 60.1399 43.6809 101.241 50.143 101.241C61.2203 101.241 68.5288 51.7477 68.5288 36.0548C68.5288 20.362 61.2203 7.64046 50.143 7.64046C44.8502 7.64046 39.5573 12.6548 34.2644 12.6548C28.9715 12.6548 23.6787 7.64046 18.3858 7.64046Z" fill="white"/>
<path d="M21.7286 14.3262C14.3438 14.3262 8.35717 20.3128 8.35717 27.6977" stroke="white" stroke-width="3.34287" stroke-linecap="round"/>
<path fill-rule="evenodd" clip-rule="evenodd" d="M65.0355 20.8615L59.717 30.586L54.3985 20.8615L44.674 15.543L54.3985 10.2245L59.717 0.5L65.0355 10.2245L74.76 15.543L65.0355 20.8615Z" fill="#78B6FF"/>
<path fill-rule="evenodd" clip-rule="evenodd" d="M40.9956 38.605L37.7099 44.6137L34.4231 38.6062L28.4156 35.3194L34.4231 32.0326L37.7099 26.0251L40.9956 32.0338L47.0042 35.3194L40.9956 38.605Z" fill="#78B6FF"/>
</svg>
